<svg xmlns="http://www.w3.org/2000/svg" xmlns:xlink="http://www.w3.org/1999/xlink" width="500" zoomAndPan="magnify" viewBox="0 0 375 374.999991" height="500" preserveAspectRatio="xMidYMid meet" version="1.0"><defs><g/><clipPath id="bbfd5bed90"><path d="M 132.105469 113.382812 L 258.796875 113.382812 L 258.796875 187.632812 L 132.105469 187.632812 Z M 132.105469 113.382812 " clip-rule="nonzero"/></clipPath></defs><g clip-path="url(#bbfd5bed90)"><path fill="#b3f8b3" d="M 241.4375 135.683594 C 249.992188 135.683594 251.769531 132.003906 252.46875 130.074219 C 252.570312 129.796875 252.648438 129.558594 252.71875 129.371094 C 253.296875 127.863281 253.820312 126.878906 246.527344 124.910156 C 243.339844 124.046875 241.945312 123.339844 241.246094 122.730469 C 241.042969 122.558594 240.902344 122.390625 240.789062 122.230469 C 240.675781 122.070312 240.59375 121.917969 240.519531 121.769531 C 240.441406 121.621094 240.371094 121.480469 240.277344 121.339844 C 240.144531 121.132812 239.960938 120.933594 239.644531 120.738281 C 239.640625 120.738281 239.636719 120.734375 239.636719 120.730469 C 239.359375 120.5625 239.03125 120.359375 238.679688 120.164062 C 238.578125 120.105469 238.488281 120.054688 238.378906 119.996094 C 237.976562 119.777344 237.519531 119.558594 237 119.359375 C 236.921875 119.328125 236.828125 119.300781 236.746094 119.269531 C 236.261719 119.097656 235.71875 118.945312 235.125 118.820312 C 235.003906 118.796875 234.894531 118.765625 234.765625 118.742188 C 234.089844 118.625 233.335938 118.558594 232.507812 118.546875 C 232.421875 118.542969 232.363281 118.523438 232.273438 118.523438 C 232.027344 118.523438 231.75 118.546875 231.488281 118.558594 C 231.300781 118.566406 231.113281 118.570312 230.914062 118.585938 C 230.292969 118.632812 229.644531 118.707031 228.945312 118.828125 C 227.425781 119.085938 226.273438 119.679688 225.355469 120.53125 C 224.441406 121.386719 223.765625 122.503906 223.210938 123.808594 C 222.660156 125.117188 222.226562 126.613281 221.796875 128.226562 C 221.523438 129.257812 221.238281 130.339844 220.933594 131.445312 C 220.933594 131.445312 220.933594 131.449219 220.933594 131.449219 C 220.785156 132.773438 220.902344 134.144531 221.601562 135.417969 C 223.148438 138.234375 225.8125 140.976562 227.367188 140.453125 C 228.5 140.089844 229.578125 138.554688 229.511719 137.410156 C 229.488281 137.050781 229.179688 136.699219 228.421875 135.917969 C 227.382812 134.84375 225.957031 133.378906 225.386719 130.878906 C 224.992188 129.128906 225.089844 127.28125 225.683594 125.382812 C 226.105469 124.035156 227.542969 123.277344 228.898438 123.703125 C 230.25 124.128906 231 125.566406 230.574219 126.921875 C 230.253906 127.9375 230.191406 128.882812 230.390625 129.738281 C 230.636719 130.832031 231.28125 131.496094 232.09375 132.339844 C 233.164062 133.4375 234.492188 134.804688 234.628906 137.101562 C 234.835938 140.566406 232.285156 144.261719 228.941406 145.339844 C 228.277344 145.554688 227.621094 145.652344 226.972656 145.652344 C 223.53125 145.652344 220.394531 142.851562 218.234375 139.695312 C 218.105469 140.070312 217.972656 140.441406 217.824219 140.777344 C 217.765625 140.910156 217.695312 141.023438 217.636719 141.152344 C 217.503906 141.425781 217.371094 141.703125 217.222656 141.953125 C 217.140625 142.09375 217.039062 142.214844 216.949219 142.351562 C 216.808594 142.5625 216.671875 142.78125 216.515625 142.972656 C 216.410156 143.101562 216.289062 143.214844 216.175781 143.335938 C 216.015625 143.507812 215.859375 143.691406 215.6875 143.847656 C 215.558594 143.960938 215.410156 144.0625 215.273438 144.167969 C 215.089844 144.3125 214.917969 144.457031 214.722656 144.585938 C 214.570312 144.683594 214.394531 144.769531 214.230469 144.863281 C 214.027344 144.976562 213.828125 145.097656 213.605469 145.203125 C 213.429688 145.285156 213.226562 145.355469 213.035156 145.433594 C 212.804688 145.527344 212.578125 145.625 212.328125 145.707031 C 212.117188 145.777344 211.886719 145.835938 211.664062 145.898438 C 211.40625 145.96875 211.152344 146.046875 210.871094 146.109375 C 210.628906 146.167969 210.359375 146.214844 210.101562 146.261719 C 209.8125 146.320312 209.53125 146.378906 209.222656 146.425781 C 208.945312 146.46875 208.644531 146.503906 208.347656 146.542969 C 208.027344 146.582031 207.707031 146.628906 207.363281 146.664062 C 207.054688 146.695312 206.714844 146.71875 206.386719 146.746094 C 206.023438 146.777344 205.664062 146.808594 205.28125 146.832031 C 204.933594 146.855469 204.558594 146.871094 204.195312 146.890625 C 203.789062 146.910156 203.390625 146.929688 202.960938 146.949219 C 202.5625 146.960938 202.140625 146.972656 201.71875 146.984375 C 201.285156 146.992188 200.855469 147.007812 200.402344 147.015625 C 199.953125 147.023438 199.476562 147.03125 199.003906 147.035156 C 198.523438 147.042969 198.042969 147.046875 197.539062 147.050781 C 197.015625 147.054688 196.472656 147.058594 195.925781 147.058594 C 195.433594 147.0625 194.941406 147.0625 194.429688 147.0625 C 193.710938 147.066406 192.972656 147.066406 192.214844 147.066406 C 192.023438 147.066406 191.851562 147.066406 191.65625 147.066406 C 191.300781 147.066406 190.941406 147.066406 190.578125 147.066406 C 189.132812 147.066406 187.726562 147.039062 186.347656 147 C 185.96875 146.988281 185.59375 146.976562 185.21875 146.964844 C 184.082031 146.925781 182.96875 146.878906 181.886719 146.828125 C 181.6875 146.816406 181.480469 146.808594 181.285156 146.800781 C 179.9375 146.730469 178.648438 146.65625 177.398438 146.582031 C 176.363281 146.519531 175.363281 146.464844 174.394531 146.410156 C 174.058594 146.390625 173.714844 146.371094 173.386719 146.355469 C 172.316406 146.300781 171.285156 146.257812 170.316406 146.230469 C 170.128906 146.222656 169.960938 146.222656 169.777344 146.21875 C 169.285156 146.207031 168.789062 146.195312 168.328125 146.195312 C 168.011719 146.195312 167.722656 146.207031 167.417969 146.210938 C 167.253906 146.214844 167.085938 146.21875 166.925781 146.222656 C 166.113281 146.246094 165.359375 146.300781 164.65625 146.382812 C 164.515625 146.398438 164.386719 146.417969 164.25 146.4375 C 163.542969 146.535156 162.878906 146.660156 162.300781 146.835938 L 162.300781 146.8125 C 162.230469 146.839844 162.164062 146.871094 162.09375 146.898438 C 161.546875 147.078125 161.007812 147.292969 160.488281 147.558594 C 156.140625 149.523438 153.65625 152.085938 152.199219 154.027344 C 145.828125 162.511719 148.136719 173.558594 140.902344 178.671875 C 139.414062 179.722656 138.007812 180.183594 137.214844 180.394531 C 137.5 180.476562 137.808594 180.546875 138.125 180.597656 C 138.222656 180.613281 138.328125 180.621094 138.429688 180.632812 C 138.652344 180.660156 138.878906 180.683594 139.117188 180.6875 C 139.167969 180.691406 139.210938 180.699219 139.261719 180.699219 C 139.308594 180.699219 139.363281 180.683594 139.410156 180.679688 C 139.894531 180.671875 140.390625 180.621094 140.902344 180.476562 C 141.308594 180.363281 141.691406 180.207031 142.058594 180.007812 C 142.789062 179.613281 143.453125 179.054688 144.0625 178.367188 C 144.363281 178.019531 144.652344 177.644531 144.933594 177.242188 C 148.28125 172.398438 149.96875 163.542969 153.449219 158.070312 C 153.597656 158.910156 153.910156 159.675781 154.269531 160.402344 C 154.414062 160.695312 154.558594 160.980469 154.71875 161.253906 C 155.242188 162.15625 155.777344 162.945312 156.167969 163.609375 C 156.40625 164.011719 156.601562 164.390625 156.660156 164.695312 C 156.746094 165.144531 156.589844 165.484375 156.042969 165.710938 C 155.5 165.9375 155.023438 166.164062 154.609375 166.394531 C 153.777344 166.859375 153.1875 167.339844 152.765625 167.875 C 152.34375 168.40625 152.09375 168.988281 151.945312 169.648438 C 151.722656 170.640625 151.730469 171.8125 151.730469 173.265625 C 151.730469 174.039062 151.730469 175.003906 151.769531 176.015625 C 151.804688 177.023438 151.882812 178.082031 152.03125 179.039062 C 152.179688 180 152.40625 180.863281 152.742188 181.488281 C 153.078125 182.113281 153.523438 182.496094 154.117188 182.496094 C 157.652344 182.496094 162.941406 182.496094 162.941406 182.496094 C 162.941406 182.488281 162.941406 182.480469 162.941406 182.472656 C 162.9375 181.917969 162.878906 181.4375 162.773438 181.015625 C 162.738281 180.863281 162.671875 180.75 162.625 180.613281 C 162.535156 180.359375 162.453125 180.105469 162.335938 179.902344 C 162.257812 179.769531 162.167969 179.671875 162.082031 179.558594 C 161.960938 179.394531 161.847656 179.230469 161.710938 179.105469 C 161.613281 179.007812 161.503906 178.933594 161.398438 178.855469 C 161.261719 178.75 161.132812 178.648438 160.992188 178.570312 C 160.878906 178.507812 160.769531 178.460938 160.660156 178.410156 C 160.523438 178.351562 160.390625 178.292969 160.257812 178.25 C 160.152344 178.214844 160.046875 178.1875 159.949219 178.160156 C 159.824219 178.128906 159.710938 178.105469 159.597656 178.085938 C 159.511719 178.070312 159.425781 178.058594 159.351562 178.050781 C 159.25 178.039062 159.171875 178.03125 159.097656 178.027344 C 159.046875 178.023438 158.984375 178.019531 158.953125 178.019531 C 158.941406 178.019531 158.925781 178.019531 158.917969 178.019531 C 158.871094 178.019531 158.847656 178.019531 158.847656 178.019531 C 158.847656 178.019531 156.140625 172.058594 160.132812 171.785156 C 166.371094 171.355469 165.660156 165.15625 173.367188 165.15625 C 178.058594 165.15625 181.402344 165.636719 184.699219 166.421875 C 185.796875 166.683594 186.890625 166.980469 188.027344 167.304688 C 189.734375 167.789062 191.539062 168.339844 193.605469 168.925781 C 194.980469 169.320312 196.476562 169.730469 198.132812 170.152344 C 200.621094 170.785156 203.476562 171.441406 206.867188 172.105469 C 208.015625 172.328125 209.128906 172.457031 210.226562 172.542969 C 210.574219 172.570312 210.910156 172.578125 211.25 172.589844 C 211.691406 172.609375 212.144531 172.652344 212.582031 172.652344 C 213.066406 172.652344 213.546875 172.640625 214.019531 172.621094 C 214.414062 177.171875 215.421875 182.496094 218.046875 182.496094 C 220.558594 182.496094 226.871094 182.496094 226.871094 182.496094 C 226.871094 181.929688 226.804688 181.445312 226.699219 181.011719 C 226.664062 180.863281 226.601562 180.753906 226.550781 180.617188 C 226.464844 180.363281 226.378906 180.109375 226.261719 179.902344 C 226.1875 179.769531 226.09375 179.671875 226.011719 179.558594 C 225.890625 179.398438 225.773438 179.234375 225.636719 179.101562 C 225.539062 179.007812 225.433594 178.933594 225.328125 178.855469 C 225.191406 178.75 225.058594 178.648438 224.917969 178.570312 C 224.808594 178.507812 224.699219 178.460938 224.589844 178.410156 C 224.449219 178.351562 224.316406 178.292969 224.183594 178.25 C 224.078125 178.214844 223.976562 178.1875 223.875 178.160156 C 223.75 178.128906 223.636719 178.105469 223.523438 178.085938 C 223.441406 178.070312 223.355469 178.058594 223.28125 178.050781 C 223.175781 178.039062 223.101562 178.03125 223.027344 178.027344 C 222.972656 178.023438 222.910156 178.019531 222.878906 178.019531 C 222.871094 178.019531 222.851562 178.019531 222.84375 178.019531 C 222.796875 178.019531 222.773438 178.019531 222.773438 178.019531 C 222.773438 178.019531 222.757812 177.964844 222.726562 177.867188 C 222.664062 177.667969 222.550781 177.285156 222.421875 176.765625 C 222.101562 175.472656 221.6875 173.339844 221.753906 171.179688 C 222.949219 170.769531 224.085938 170.289062 225.15625 169.75 C 231.566406 166.527344 235.546875 161.285156 235.828125 157.453125 C 235.875 156.816406 235.816406 156.214844 235.652344 155.667969 C 233.570312 148.777344 236.703125 140.085938 236.703125 140.085938 C 236.703125 140.085938 236.71875 140.019531 236.753906 139.898438 C 236.824219 139.65625 236.972656 139.210938 237.226562 138.695312 C 237.351562 138.4375 237.503906 138.160156 237.683594 137.886719 C 238.402344 136.785156 239.589844 135.683594 241.4375 135.683594 Z M 240.558594 154.183594 C 242.589844 160.90625 236.777344 169.519531 227.671875 174.21875 C 230.164062 175.734375 231.996094 178.515625 231.996094 182.496094 C 231.996094 185.328125 229.703125 187.628906 226.871094 187.628906 L 218.046875 187.628906 C 212.472656 187.628906 210.367188 182.136719 209.503906 177.652344 C 208.289062 177.546875 207.078125 177.375 205.890625 177.144531 C 198.226562 175.644531 193.171875 174.160156 189.109375 172.964844 C 183.433594 171.296875 180.003906 170.289062 173.367188 170.289062 C 171.417969 170.289062 170.984375 170.734375 169.558594 172.214844 C 168.574219 173.234375 167.296875 174.558594 165.425781 175.542969 C 167.019531 177.15625 168.070312 179.480469 168.070312 182.496094 C 168.070312 185.328125 165.773438 187.628906 162.941406 187.628906 L 154.117188 187.628906 C 150.355469 187.628906 148.476562 185.195312 147.539062 182.183594 C 146.113281 183.6875 144.402344 184.828125 142.285156 185.421875 C 141.308594 185.695312 140.292969 185.835938 139.261719 185.835938 C 138.125 185.835938 136.957031 185.664062 135.792969 185.328125 C 133.578125 184.6875 132.0625 182.648438 132.085938 180.34375 C 132.109375 178.035156 133.667969 176.027344 135.890625 175.433594 C 136.636719 175.234375 137.328125 174.914062 137.945312 174.476562 C 140.191406 172.890625 141.019531 169.9375 142.179688 165.246094 C 143.292969 160.757812 144.554688 155.664062 148.101562 150.941406 C 150.65625 147.539062 154.078125 144.84375 158.269531 142.929688 C 158.90625 142.609375 159.570312 142.332031 160.289062 142.089844 C 160.375 142.054688 160.460938 142.019531 160.546875 141.988281 C 160.820312 141.890625 161.101562 141.8125 161.382812 141.761719 C 163.214844 141.277344 165.390625 141.0625 168.328125 141.0625 C 170.957031 141.0625 174.007812 141.238281 177.238281 141.429688 C 181.234375 141.667969 185.765625 141.933594 190.578125 141.933594 L 191.65625 141.933594 C 210.738281 141.933594 212.308594 141.367188 213.460938 137.839844 C 214.34375 135.128906 214.871094 133.542969 215.179688 132.632812 C 215.28125 132.339844 215.410156 131.957031 215.585938 131.542969 C 215.707031 131.140625 215.804688 130.746094 215.914062 130.34375 C 216.179688 128.582031 216.699219 127.007812 217.113281 125.796875 L 217.375 125.019531 C 217.382812 125 217.402344 124.984375 217.40625 124.964844 C 218.910156 119.992188 221.347656 114.921875 228.078125 113.765625 C 229.53125 113.515625 230.941406 113.390625 232.273438 113.390625 C 237.550781 113.390625 240.742188 115.375 242.273438 116.328125 C 243.695312 117.214844 244.425781 118.257812 244.816406 118.9375 C 245.234375 119.128906 246.125 119.480469 247.863281 119.953125 C 253.003906 121.339844 256.058594 122.625 257.472656 125.417969 C 258.761719 127.957031 257.867188 130.269531 257.53125 131.144531 L 257.433594 131.417969 C 256.636719 133.714844 254.234375 140.644531 241.902344 140.816406 C 241.808594 140.980469 241.714844 141.191406 241.667969 141.359375 C 241.621094 141.558594 241.59375 141.636719 241.523438 141.828125 C 240.824219 143.8125 239.273438 149.917969 240.558594 154.183594 " fill-opacity="1" fill-rule="nonzero"/></g><g fill="#b3f8b3" fill-opacity="1"><g transform="translate(77.374566, 226.249994)"><g><path d="M 18.59375 0 L 17.796875 -2.796875 L 17.484375 -2.796875 C 16.847656 -1.773438 15.941406 -0.988281 14.765625 -0.4375 C 13.597656 0.113281 12.265625 0.390625 10.765625 0.390625 C 8.203125 0.390625 6.269531 -0.296875 4.96875 -1.671875 C 3.664062 -3.046875 3.015625 -5.019531 3.015625 -7.59375 L 3.015625 -21.84375 L 8.96875 -21.84375 L 8.96875 -9.078125 C 8.96875 -7.503906 9.242188 -6.320312 9.796875 -5.53125 C 10.359375 -4.75 11.253906 -4.359375 12.484375 -4.359375 C 14.148438 -4.359375 15.351562 -4.914062 16.09375 -6.03125 C 16.832031 -7.144531 17.203125 -8.988281 17.203125 -11.5625 L 17.203125 -21.84375 L 23.171875 -21.84375 L 23.171875 0 Z M 18.59375 0 "/></g></g></g><g fill="#b3f8b3" fill-opacity="1"><g transform="translate(103.661059, 226.249994)"><g><path d="M 9.078125 0 L 3.125 0 L 3.125 -30.390625 L 9.078125 -30.390625 Z M 9.078125 0 "/></g></g></g><g fill="#b3f8b3" fill-opacity="1"><g transform="translate(115.866903, 226.249994)"><g><path d="M 15.3125 -22.25 C 16.125 -22.25 16.796875 -22.191406 17.328125 -22.078125 L 16.875 -16.484375 C 16.394531 -16.617188 15.8125 -16.6875 15.125 -16.6875 C 13.21875 -16.6875 11.734375 -16.195312 10.671875 -15.21875 C 9.609375 -14.238281 9.078125 -12.867188 9.078125 -11.109375 L 9.078125 0 L 3.125 0 L 3.125 -21.84375 L 7.640625 -21.84375 L 8.515625 -18.171875 L 8.8125 -18.171875 C 9.488281 -19.390625 10.398438 -20.375 11.546875 -21.125 C 12.703125 -21.875 13.957031 -22.25 15.3125 -22.25 Z M 15.3125 -22.25 "/></g></g></g><g fill="#b3f8b3" fill-opacity="1"><g transform="translate(134.029191, 226.249994)"><g><path d="M 2.875 -27.484375 C 2.875 -29.421875 3.953125 -30.390625 6.109375 -30.390625 C 8.273438 -30.390625 9.359375 -29.421875 9.359375 -27.484375 C 9.359375 -26.554688 9.085938 -25.832031 8.546875 -25.3125 C 8.003906 -24.800781 7.191406 -24.546875 6.109375 -24.546875 C 3.953125 -24.546875 2.875 -25.523438 2.875 -27.484375 Z M 9.078125 0 L 3.125 0 L 3.125 -21.84375 L 9.078125 -21.84375 Z M 9.078125 0 "/></g></g></g><g fill="#b3f8b3" fill-opacity="1"><g transform="translate(146.235035, 226.249994)"><g><path d="M 12 0.390625 C 5.195312 0.390625 1.796875 -3.335938 1.796875 -10.796875 C 1.796875 -14.515625 2.71875 -17.351562 4.5625 -19.3125 C 6.414062 -21.269531 9.066406 -22.25 12.515625 -22.25 C 15.046875 -22.25 17.3125 -21.753906 19.3125 -20.765625 L 17.5625 -16.15625 C 16.625 -16.53125 15.75 -16.835938 14.9375 -17.078125 C 14.132812 -17.316406 13.328125 -17.4375 12.515625 -17.4375 C 9.421875 -17.4375 7.875 -15.238281 7.875 -10.84375 C 7.875 -6.570312 9.421875 -4.4375 12.515625 -4.4375 C 13.660156 -4.4375 14.722656 -4.585938 15.703125 -4.890625 C 16.679688 -5.203125 17.660156 -5.679688 18.640625 -6.328125 L 18.640625 -1.234375 C 17.671875 -0.617188 16.691406 -0.195312 15.703125 0.03125 C 14.722656 0.269531 13.488281 0.390625 12 0.390625 Z M 12 0.390625 "/></g></g></g><g fill="#b3f8b3" fill-opacity="1"><g transform="translate(166.799437, 226.249994)"><g><path d="M 23.28125 0 L 17.328125 0 L 17.328125 -12.75 C 17.328125 -15.90625 16.15625 -17.484375 13.8125 -17.484375 C 12.144531 -17.484375 10.9375 -16.914062 10.1875 -15.78125 C 9.445312 -14.644531 9.078125 -12.8125 9.078125 -10.28125 L 9.078125 0 L 3.125 0 L 3.125 -30.390625 L 9.078125 -30.390625 L 9.078125 -24.203125 C 9.078125 -23.722656 9.035156 -22.585938 8.953125 -20.796875 L 8.8125 -19.046875 L 9.125 -19.046875 C 10.445312 -21.179688 12.554688 -22.25 15.453125 -22.25 C 18.015625 -22.25 19.957031 -21.554688 21.28125 -20.171875 C 22.613281 -18.796875 23.28125 -16.816406 23.28125 -14.234375 Z M 23.28125 0 "/></g></g></g><g fill="#b3f8b3" fill-opacity="1"><g transform="translate(193.085931, 226.249994)"><g><path d="M 2.28125 -2.796875 C 2.28125 -3.890625 2.570312 -4.710938 3.15625 -5.265625 C 3.75 -5.828125 4.601562 -6.109375 5.71875 -6.109375 C 6.800781 -6.109375 7.640625 -5.820312 8.234375 -5.25 C 8.828125 -4.675781 9.125 -3.859375 9.125 -2.796875 C 9.125 -1.765625 8.820312 -0.953125 8.21875 -0.359375 C 7.625 0.234375 6.789062 0.53125 5.71875 0.53125 C 4.625 0.53125 3.773438 0.238281 3.171875 -0.34375 C 2.578125 -0.925781 2.28125 -1.742188 2.28125 -2.796875 Z M 2.28125 -2.796875 "/></g></g></g><g fill="#b3f8b3" fill-opacity="1"><g transform="translate(204.491066, 226.249994)"><g><path d="M 10.046875 0.390625 C 7.472656 0.390625 5.453125 -0.601562 3.984375 -2.59375 C 2.523438 -4.59375 1.796875 -7.351562 1.796875 -10.875 C 1.796875 -14.457031 2.539062 -17.25 4.03125 -19.25 C 5.519531 -21.25 7.578125 -22.25 10.203125 -22.25 C 12.941406 -22.25 15.035156 -21.179688 16.484375 -19.046875 L 16.6875 -19.046875 C 16.382812 -20.671875 16.234375 -22.125 16.234375 -23.40625 L 16.234375 -30.390625 L 22.203125 -30.390625 L 22.203125 0 L 17.640625 0 L 16.484375 -2.828125 L 16.234375 -2.828125 C 14.878906 -0.679688 12.816406 0.390625 10.046875 0.390625 Z M 12.125 -4.359375 C 13.65625 -4.359375 14.773438 -4.800781 15.484375 -5.6875 C 16.191406 -6.570312 16.578125 -8.078125 16.640625 -10.203125 L 16.640625 -10.84375 C 16.640625 -13.1875 16.273438 -14.863281 15.546875 -15.875 C 14.828125 -16.894531 13.65625 -17.40625 12.03125 -17.40625 C 10.707031 -17.40625 9.675781 -16.84375 8.9375 -15.71875 C 8.195312 -14.59375 7.828125 -12.953125 7.828125 -10.796875 C 7.828125 -8.648438 8.195312 -7.039062 8.9375 -5.96875 C 9.6875 -4.894531 10.75 -4.359375 12.125 -4.359375 Z M 12.125 -4.359375 "/></g></g></g><g fill="#b3f8b3" fill-opacity="1"><g transform="translate(229.801092, 226.249994)"><g><path d="M 7.875 -10.953125 C 7.875 -8.796875 8.226562 -7.160156 8.9375 -6.046875 C 9.644531 -4.941406 10.800781 -4.390625 12.40625 -4.390625 C 13.988281 -4.390625 15.128906 -4.941406 15.828125 -6.046875 C 16.523438 -7.148438 16.875 -8.785156 16.875 -10.953125 C 16.875 -13.117188 16.519531 -14.738281 15.8125 -15.8125 C 15.113281 -16.894531 13.960938 -17.4375 12.359375 -17.4375 C 10.773438 -17.4375 9.628906 -16.898438 8.921875 -15.828125 C 8.222656 -14.753906 7.875 -13.128906 7.875 -10.953125 Z M 22.96875 -10.953125 C 22.96875 -7.398438 22.03125 -4.617188 20.15625 -2.609375 C 18.28125 -0.609375 15.671875 0.390625 12.328125 0.390625 C 10.234375 0.390625 8.382812 -0.0664062 6.78125 -0.984375 C 5.175781 -1.898438 3.941406 -3.21875 3.078125 -4.9375 C 2.222656 -6.65625 1.796875 -8.660156 1.796875 -10.953125 C 1.796875 -14.523438 2.726562 -17.300781 4.59375 -19.28125 C 6.457031 -21.257812 9.070312 -22.25 12.4375 -22.25 C 14.539062 -22.25 16.390625 -21.789062 17.984375 -20.875 C 19.585938 -19.96875 20.816406 -18.660156 21.671875 -16.953125 C 22.535156 -15.242188 22.96875 -13.242188 22.96875 -10.953125 Z M 22.96875 -10.953125 "/></g></g></g><g fill="#b3f8b3" fill-opacity="1"><g transform="translate(254.564297, 226.249994)"><g><path d="M 7.59375 -11.15625 L 0.5625 -21.84375 L 7.328125 -21.84375 L 11.5625 -14.890625 L 15.84375 -21.84375 L 22.59375 -21.84375 L 15.484375 -11.15625 L 22.9375 0 L 16.15625 0 L 11.5625 -7.484375 L 6.953125 0 L 0.203125 0 Z M 7.59375 -11.15625 "/></g></g></g><g fill="#b3f8b3" fill-opacity="1"><g transform="translate(277.687037, 226.249994)"><g><path d="M 2.875 -27.484375 C 2.875 -29.421875 3.953125 -30.390625 6.109375 -30.390625 C 8.273438 -30.390625 9.359375 -29.421875 9.359375 -27.484375 C 9.359375 -26.554688 9.085938 -25.832031 8.546875 -25.3125 C 8.003906 -24.800781 7.191406 -24.546875 6.109375 -24.546875 C 3.953125 -24.546875 2.875 -25.523438 2.875 -27.484375 Z M 9.078125 0 L 3.125 0 L 3.125 -21.84375 L 9.078125 -21.84375 Z M 9.078125 0 "/></g></g></g><g fill="#b3f8b3" fill-opacity="1"><g transform="translate(289.892893, 226.249994)"><g><path d="M 12.171875 -18.015625 C 10.910156 -18.015625 9.921875 -17.613281 9.203125 -16.8125 C 8.484375 -16.007812 8.070312 -14.875 7.96875 -13.40625 L 16.328125 -13.40625 C 16.304688 -14.875 15.921875 -16.007812 15.171875 -16.8125 C 14.429688 -17.613281 13.429688 -18.015625 12.171875 -18.015625 Z M 13.015625 0.390625 C 9.492188 0.390625 6.742188 -0.578125 4.765625 -2.515625 C 2.785156 -4.460938 1.796875 -7.210938 1.796875 -10.765625 C 1.796875 -14.421875 2.707031 -17.25 4.53125 -19.25 C 6.363281 -21.25 8.894531 -22.25 12.125 -22.25 C 15.21875 -22.25 17.625 -21.367188 19.34375 -19.609375 C 21.0625 -17.847656 21.921875 -15.421875 21.921875 -12.328125 L 21.921875 -9.4375 L 7.828125 -9.4375 C 7.898438 -7.738281 8.40625 -6.414062 9.34375 -5.46875 C 10.28125 -4.519531 11.59375 -4.046875 13.28125 -4.046875 C 14.59375 -4.046875 15.832031 -4.179688 17 -4.453125 C 18.175781 -4.722656 19.40625 -5.160156 20.6875 -5.765625 L 20.6875 -1.15625 C 19.644531 -0.632812 18.53125 -0.25 17.34375 0 C 16.15625 0.257812 14.710938 0.390625 13.015625 0.390625 Z M 13.015625 0.390625 "/></g></g></g></svg>