<?xml version="1.0" encoding="utf-8"?>
<!-- Generator: Adobe Illustrator 26.0.1, SVG Export Plug-In . SVG Version: 6.00 Build 0)  -->
<svg version="1.1" id="Camada_1" xmlns="http://www.w3.org/2000/svg" xmlns:xlink="http://www.w3.org/1999/xlink" x="0px" y="0px"
	 viewBox="0 0 311.3 154.2" enable-background="new 0 0 311.3 154.2" xml:space="preserve">
<g>
	<g>
		<defs>
			<rect id="SVGID_1_" x="70.9" y="1.2" width="168.9" height="99"/>
		</defs>
		<clipPath id="SVGID_00000003084291186896151610000000742459812549967797_">
			<use xlink:href="#SVGID_1_"  overflow="visible"/>
		</clipPath>
		<g clip-path="url(#SVGID_00000003084291186896151610000000742459812549967797_)">
			<path fill="#B3F8B3" d="M216.7,30.9c11.4,0,13.8-4.9,14.7-7.5c0.1-0.4,0.2-0.7,0.3-0.9c0.8-2,1.5-3.3-8.3-5.9
				c-4.2-1.2-6.1-2.1-7-2.9c-0.3-0.2-0.5-0.5-0.6-0.7c-0.2-0.2-0.3-0.4-0.4-0.6c-0.1-0.2-0.2-0.4-0.3-0.6c-0.2-0.3-0.4-0.5-0.8-0.8
				l0,0c-0.4-0.2-0.8-0.5-1.3-0.8c-0.1-0.1-0.3-0.1-0.4-0.2c-0.5-0.3-1.1-0.6-1.8-0.8c-0.1,0-0.2-0.1-0.3-0.1
				c-0.6-0.2-1.4-0.4-2.2-0.6c-0.2,0-0.3-0.1-0.5-0.1c-0.9-0.2-1.9-0.2-3-0.3c-0.1,0-0.2,0-0.3,0c-0.3,0-0.7,0-1,0
				c-0.2,0-0.5,0-0.8,0c-0.8,0.1-1.7,0.2-2.6,0.3c-2,0.3-3.6,1.1-4.8,2.3c-1.2,1.1-2.1,2.6-2.9,4.4c-0.7,1.7-1.3,3.7-1.9,5.9
				c-0.4,1.4-0.7,2.8-1.2,4.3l0,0c-0.2,1.8,0,3.6,0.9,5.3c2.1,3.8,5.6,7.4,7.7,6.7c1.5-0.5,2.9-2.5,2.9-4.1c0-0.5-0.4-0.9-1.5-2
				c-1.4-1.4-3.3-3.4-4-6.7c-0.5-2.3-0.4-4.8,0.4-7.3c0.6-1.8,2.5-2.8,4.3-2.2c1.8,0.6,2.8,2.5,2.2,4.3c-0.4,1.4-0.5,2.6-0.2,3.8
				c0.3,1.5,1.2,2.3,2.3,3.5c1.4,1.5,3.2,3.3,3.4,6.3c0.3,4.6-3.1,9.5-7.6,11c-0.9,0.3-1.8,0.4-2.6,0.4c-4.6,0-8.8-3.7-11.7-7.9
				c-0.2,0.5-0.3,1-0.5,1.4c-0.1,0.2-0.2,0.3-0.2,0.5c-0.2,0.4-0.4,0.7-0.6,1.1c-0.1,0.2-0.2,0.3-0.4,0.5c-0.2,0.3-0.4,0.6-0.6,0.8
				c-0.1,0.2-0.3,0.3-0.5,0.5s-0.4,0.5-0.7,0.7c-0.2,0.2-0.4,0.3-0.6,0.4c-0.2,0.2-0.5,0.4-0.7,0.6c-0.2,0.1-0.4,0.2-0.7,0.4
				s-0.5,0.3-0.8,0.5c-0.2,0.1-0.5,0.2-0.8,0.3s-0.6,0.3-0.9,0.4c-0.3,0.1-0.6,0.2-0.9,0.3c-0.3,0.1-0.7,0.2-1.1,0.3
				c-0.3,0.1-0.7,0.1-1,0.2c-0.4,0.1-0.8,0.2-1.2,0.2c-0.4,0.1-0.8,0.1-1.2,0.2c-0.4,0.1-0.9,0.1-1.3,0.2c-0.4,0-0.9,0.1-1.3,0.1
				c-0.5,0-1,0.1-1.5,0.1s-1,0.1-1.4,0.1c-0.5,0-1.1,0.1-1.6,0.1s-1.1,0-1.7,0c-0.6,0-1.2,0-1.8,0s-1.2,0-1.9,0c-0.6,0-1.3,0-2,0
				s-1.4,0-2.2,0c-0.7,0-1.3,0-2,0c-1,0-1.9,0-3,0c-0.3,0-0.5,0-0.7,0c-0.5,0-1,0-1.4,0c-1.9,0-3.8,0-5.6-0.1c-0.5,0-1,0-1.5,0
				c-1.5-0.1-3-0.1-4.4-0.2c-0.3,0-0.5,0-0.8,0c-1.8-0.1-3.5-0.2-5.2-0.3c-1.4-0.1-2.7-0.2-4-0.2c-0.4,0-0.9-0.1-1.3-0.1
				c-1.4-0.1-2.8-0.1-4.1-0.2c-0.2,0-0.5,0-0.7,0c-0.7,0-1.3,0-1.9,0c-0.4,0-0.8,0-1.2,0c-0.2,0-0.4,0-0.7,0c-1.1,0-2.1,0.1-3,0.2
				c-0.2,0-0.4,0-0.5,0.1c-0.9,0.1-1.8,0.3-2.6,0.5l0,0c-0.1,0-0.2,0.1-0.3,0.1c-0.7,0.2-1.4,0.5-2.1,0.9c-5.8,2.6-9.1,6-11.1,8.6
				c-8.5,11.3-5.4,26-15.1,32.9c-2,1.4-3.9,2-4.9,2.3c0.4,0.1,0.8,0.2,1.2,0.3c0.1,0,0.3,0,0.4,0c0.3,0,0.6,0.1,0.9,0.1
				c0.1,0,0.1,0,0.2,0s0.1,0,0.2,0c0.6,0,1.3-0.1,2-0.3c0.5-0.2,1.1-0.4,1.5-0.6c1-0.5,1.9-1.3,2.7-2.2c0.4-0.5,0.8-1,1.2-1.5
				c4.5-6.5,6.7-18.3,11.4-25.6c0.2,1.1,0.6,2.1,1.1,3.1c0.2,0.4,0.4,0.8,0.6,1.1c0.7,1.2,1.4,2.3,1.9,3.1c0.3,0.5,0.6,1,0.7,1.4
				c0.1,0.6-0.1,1.1-0.8,1.4c-0.7,0.3-1.4,0.6-1.9,0.9c-1.1,0.6-1.9,1.3-2.5,2s-0.9,1.5-1.1,2.4C97,77.7,97,79.3,97,81.2
				c0,1,0,2.3,0.1,3.7c0,1.3,0.2,2.8,0.3,4c0.2,1.3,0.5,2.4,0.9,3.3c0.4,0.8,1,1.3,1.8,1.3c4.7,0,11.8,0,11.8,0l0,0
				c0-0.7-0.1-1.4-0.2-1.9c0-0.2-0.1-0.4-0.2-0.5c-0.1-0.3-0.2-0.7-0.4-0.9c-0.1-0.2-0.2-0.3-0.3-0.5c-0.2-0.2-0.3-0.4-0.5-0.6
				c-0.1-0.1-0.3-0.2-0.4-0.3c-0.2-0.1-0.4-0.3-0.5-0.4c-0.2-0.1-0.3-0.1-0.4-0.2c-0.2-0.1-0.4-0.2-0.5-0.2s-0.3-0.1-0.4-0.1
				c-0.2,0-0.3-0.1-0.5-0.1c-0.1,0-0.2,0-0.3,0c-0.1,0-0.2,0-0.3,0c-0.1,0-0.2,0-0.2,0l0,0c-0.1,0-0.1,0-0.1,0s-3.6-7.9,1.7-8.3
				c8.3-0.6,7.4-8.8,17.6-8.8c6.3,0,10.7,0.6,15.1,1.7c1.5,0.3,2.9,0.7,4.4,1.2c2.3,0.6,4.7,1.4,7.4,2.2c1.8,0.5,3.8,1.1,6,1.6
				c3.3,0.8,7.1,1.7,11.6,2.6c1.5,0.3,3,0.5,4.5,0.6c0.5,0,0.9,0,1.4,0.1c0.6,0,1.2,0.1,1.8,0.1s1.3,0,1.9,0
				c0.5,6.1,1.9,13.2,5.4,13.2c3.3,0,11.8,0,11.8,0c0-0.8-0.1-1.4-0.2-2c0-0.2-0.1-0.3-0.2-0.5c-0.1-0.3-0.2-0.7-0.4-1
				c-0.1-0.2-0.2-0.3-0.3-0.5c-0.2-0.2-0.3-0.4-0.5-0.6c-0.1-0.1-0.3-0.2-0.4-0.3c-0.2-0.1-0.4-0.3-0.5-0.4s-0.3-0.1-0.4-0.2
				c-0.2-0.1-0.4-0.2-0.5-0.2s-0.3-0.1-0.4-0.1c-0.2,0-0.3-0.1-0.5-0.1c-0.1,0-0.2,0-0.3,0s-0.2,0-0.3,0s-0.2,0-0.2,0l0,0
				c-0.1,0-0.1,0-0.1,0s0-0.1-0.1-0.2c-0.1-0.3-0.2-0.8-0.4-1.5c-0.4-1.7-1-4.6-0.9-7.4c1.6-0.5,3.1-1.2,4.5-1.9
				c8.5-4.3,13.9-11.3,14.2-16.4c0.1-0.8,0-1.7-0.2-2.4c-2.8-9.2,1.4-20.8,1.4-20.8s0-0.1,0.1-0.2c0.1-0.3,0.3-0.9,0.6-1.6
				c0.2-0.3,0.4-0.7,0.6-1.1C212.7,32.4,214.3,30.9,216.7,30.9z M215.5,55.6c2.7,9-5,20.4-17.2,26.7c3.3,2,5.8,5.7,5.8,11
				c0,3.8-3.1,6.8-6.8,6.8h-11.8c-7.4,0-10.2-7.3-11.4-13.3c-1.6-0.1-3.2-0.4-4.8-0.7c-10.2-2-17-4-22.4-5.6
				c-7.6-2.2-12.1-3.6-21-3.6c-2.6,0-3.2,0.6-5.1,2.6c-1.3,1.4-3,3.1-5.5,4.4c2.1,2.2,3.5,5.2,3.5,9.3c0,3.8-3.1,6.8-6.8,6.8h-11.8
				c-5,0-7.5-3.2-8.8-7.3c-1.9,2-4.2,3.5-7,4.3c-1.3,0.4-2.7,0.6-4,0.6c-1.5,0-3.1-0.2-4.6-0.7c-3-0.9-5-3.6-4.9-6.6
				c0-3.1,2.1-5.8,5.1-6.5c1-0.3,1.9-0.7,2.7-1.3c3-2.1,4.1-6.1,5.6-12.3c1.5-6,3.2-12.8,7.9-19.1c3.4-4.5,8-8.1,13.6-10.7
				c0.8-0.4,1.7-0.8,2.7-1.1c0.1,0,0.2-0.1,0.3-0.1c0.4-0.1,0.7-0.2,1.1-0.3c2.4-0.6,5.3-0.9,9.3-0.9c3.5,0,7.6,0.2,11.9,0.5
				c5.3,0.3,11.4,0.7,17.8,0.7h1.4c25.4,0,27.5-0.8,29.1-5.5c1.2-3.6,1.9-5.7,2.3-6.9c0.1-0.4,0.3-0.9,0.5-1.5
				c0.2-0.5,0.3-1.1,0.4-1.6c0.4-2.3,1-4.4,1.6-6.1l0.3-1c0,0,0,0,0-0.1c2-6.6,5.3-13.4,14.2-14.9c1.9-0.3,3.8-0.5,5.6-0.5
				c7,0,11.3,2.6,13.3,3.9c1.9,1.2,2.9,2.6,3.4,3.5c0.6,0.3,1.7,0.7,4.1,1.4c6.9,1.8,10.9,3.6,12.8,7.3c1.7,3.4,0.5,6.5,0.1,7.6
				l-0.1,0.4c-1.1,3.1-4.3,12.3-20.7,12.5c-0.1,0.2-0.2,0.5-0.3,0.7c-0.1,0.3-0.1,0.4-0.2,0.6C215.9,41.8,213.8,49.9,215.5,55.6"/>
		</g>
	</g>
</g>
<g>
	<g transform="translate(77.374566, 226.249994)">
		<g>
			<path fill="#B3F8B3" d="M-54.6-74.6l-1.1-3.7h-0.4c-0.8,1.4-2.1,2.4-3.6,3.1c-1.6,0.7-3.3,1.1-5.3,1.1c-3.4,0-6-0.9-7.7-2.8
				c-1.7-1.8-2.6-4.5-2.6-7.9v-19h7.9v17c0,2.1,0.4,3.7,1.1,4.7c0.8,1,1.9,1.6,3.6,1.6c2.2,0,3.8-0.7,4.8-2.2s1.5-3.9,1.5-7.4v-13.7
				h8v29.1h-6.2V-74.6z"/>
		</g>
	</g>
</g>
<g>
	<g transform="translate(103.661059, 226.249994)">
		<g>
			<path fill="#B3F8B3" d="M-58.5-74.6h-7.9v-40.5h7.9V-74.6z"/>
		</g>
	</g>
</g>
<g>
	<g transform="translate(115.866903, 226.249994)">
		<g>
			<path fill="#B3F8B3" d="M-46.2-104.2c1.1,0,2,0.1,2.7,0.2l-0.6,7.5c-0.6-0.2-1.4-0.3-2.3-0.3c-2.5,0-4.5,0.7-5.9,2
				s-2.1,3.1-2.1,5.5v14.8h-7.9v-29.1h6l1.2,4.9h0.4c0.9-1.6,2.1-2.9,3.6-3.9C-49.6-103.7-48-104.2-46.2-104.2z"/>
		</g>
	</g>
</g>
<g>
	<g transform="translate(134.029191, 226.249994)">
		<g>
			<path fill="#B3F8B3" d="M-56.7-111.2c0-2.6,1.4-3.9,4.3-3.9c2.9,0,4.3,1.3,4.3,3.9c0,1.2-0.4,2.2-1.1,2.9c-0.7,0.7-1.8,1-3.2,1
				C-55.3-107.3-56.7-108.6-56.7-111.2z M-48.4-74.6h-7.9v-29.1h7.9V-74.6z"/>
		</g>
	</g>
</g>
<g>
	<g transform="translate(146.235035, 226.249994)">
		<g>
			<path fill="#B3F8B3" d="M-40.5-74.1c-9.1,0-13.6-5-13.6-14.9c0-5,1.2-8.7,3.7-11.4c2.5-2.6,6-3.9,10.6-3.9c3.4,0,6.4,0.7,9.1,2
				l-2.3,6.1c-1.2-0.5-2.4-0.9-3.5-1.2c-1.1-0.3-2.1-0.5-3.2-0.5c-4.1,0-6.2,2.9-6.2,8.8c0,5.7,2.1,8.5,6.2,8.5
				c1.5,0,2.9-0.2,4.2-0.6s2.6-1.1,3.9-1.9v6.8c-1.3,0.8-2.6,1.4-3.9,1.7C-36.8-74.2-38.5-74.1-40.5-74.1z"/>
		</g>
	</g>
</g>
<g>
	<g transform="translate(166.799437, 226.249994)">
		<g>
			<path fill="#B3F8B3" d="M-18.6-74.6h-7.9v-17c0-4.2-1.6-6.3-4.7-6.3c-2.2,0-3.8,0.8-4.8,2.3s-1.5,4-1.5,7.3v13.7h-7.9v-40.5h7.9
				v8.2c0,0.6-0.1,2.2-0.2,4.5l-0.2,2.3h0.4c1.8-2.8,4.6-4.3,8.4-4.3c3.4,0,6,0.9,7.8,2.8c1.8,1.8,2.7,4.5,2.7,7.9
				C-18.6-93.7-18.6-74.6-18.6-74.6z"/>
		</g>
	</g>
</g>
<g>
	<g transform="translate(193.085931, 226.249994)">
		<g>
			<path fill="#B3F8B3" d="M-37.8-78.3c0-1.5,0.4-2.6,1.2-3.3c0.8-0.8,1.9-1.1,3.4-1.1c1.4,0,2.6,0.4,3.4,1.1
				c0.8,0.8,1.2,1.9,1.2,3.3s-0.4,2.5-1.2,3.2c-0.8,0.8-1.9,1.2-3.3,1.2c-1.5,0-2.6-0.4-3.4-1.2C-37.4-75.8-37.8-76.9-37.8-78.3z"/>
		</g>
	</g>
</g>
<g>
	<g transform="translate(204.491066, 226.249994)">
		<g>
			<path fill="#B3F8B3" d="M-23.6-74.1c-3.4,0-6.1-1.3-8.1-4c-1.9-2.7-2.9-6.3-2.9-11c0-4.8,1-8.5,3-11.2s4.7-4,8.2-4
				c3.7,0,6.4,1.4,8.4,4.3h0.3c-0.4-2.2-0.6-4.1-0.6-5.8v-9.3h8v40.5h-6.1l-1.5-3.8h-0.3C-17.2-75.5-19.9-74.1-23.6-74.1z
				 M-20.9-80.4c2,0,3.5-0.6,4.5-1.8c0.9-1.2,1.5-3.2,1.5-6V-89c0-3.1-0.5-5.4-1.5-6.7c-1-1.4-2.5-2-4.7-2c-1.8,0-3.1,0.8-4.1,2.2
				c-1,1.5-1.5,3.7-1.5,6.6s0.5,5,1.5,6.4C-24.1-81.1-22.7-80.4-20.9-80.4z"/>
		</g>
	</g>
</g>
<g>
	<g transform="translate(229.801092, 226.249994)">
		<g>
			<path fill="#B3F8B3" d="M-18.1-89.2c0,2.9,0.5,5.1,1.4,6.5c0.9,1.5,2.5,2.2,4.6,2.2s3.6-0.7,4.6-2.2c0.9-1.5,1.4-3.7,1.4-6.5
				c0-2.9-0.5-5-1.4-6.5c-0.9-1.4-2.5-2.2-4.6-2.2s-3.6,0.7-4.6,2.1C-17.6-94.3-18.1-92.1-18.1-89.2z M2-89.2
				c0,4.7-1.2,8.4-3.8,11.1c-2.5,2.7-6,4-10.4,4c-2.8,0-5.3-0.6-7.4-1.8c-2.1-1.2-3.8-3-4.9-5.3s-1.7-5-1.7-8
				c0-4.8,1.2-8.5,3.7-11.1s6-4,10.5-4c2.8,0,5.3,0.6,7.4,1.8c2.1,1.2,3.8,3,4.9,5.2C1.4-94.9,2-92.2,2-89.2z"/>
		</g>
	</g>
</g>
<g>
	<g transform="translate(254.564297, 226.249994)">
		<g>
			<path fill="#B3F8B3" d="M-10.2-89.5l-9.4-14.2h9l5.6,9.3l5.7-9.3h9L0.3-89.5l9.9,14.9h-9l-6.1-10l-6.1,10h-9L-10.2-89.5z"/>
		</g>
	</g>
</g>
<g>
	<g transform="translate(277.687037, 226.249994)">
		<g>
			<path fill="#B3F8B3" d="M-8.8-111.2c0-2.6,1.4-3.9,4.3-3.9s4.3,1.3,4.3,3.9c0,1.2-0.4,2.2-1.1,2.9c-0.7,0.7-1.8,1-3.2,1
				C-7.4-107.3-8.8-108.6-8.8-111.2z M-0.5-74.6h-7.9v-29.1h7.9V-74.6z"/>
		</g>
	</g>
</g>
<g>
	<g transform="translate(289.892893, 226.249994)">
		<g>
			<path fill="#B3F8B3" d="M7.7-98.6c-1.7,0-3,0.5-4,1.6s-1.5,2.6-1.6,4.5h11.1c0-2-0.5-3.5-1.5-4.5C10.7-98.1,9.3-98.6,7.7-98.6z
				 M8.8-74.1c-4.7,0-8.4-1.3-11-3.9s-4-6.3-4-11c0-4.9,1.2-8.6,3.6-11.3c2.4-2.7,5.8-4,10.1-4c4.1,0,7.3,1.2,9.6,3.5
				s3.4,5.6,3.4,9.7v3.9H1.9c0.1,2.3,0.8,4,2,5.3s3,1.9,5.2,1.9c1.8,0,3.4-0.2,5-0.5c1.6-0.4,3.2-0.9,4.9-1.8v6.1
				c-1.4,0.7-2.9,1.2-4.5,1.5C13-74.2,11-74.1,8.8-74.1z"/>
		</g>
	</g>
</g>
</svg>
