<svg xmlns="http://www.w3.org/2000/svg" xmlns:xlink="http://www.w3.org/1999/xlink" width="500" zoomAndPan="magnify" viewBox="0 0 375 374.999991" height="500" preserveAspectRatio="xMidYMid meet" version="1.0"><defs><clipPath id="820a5f7d1c"><path d="M 37.5 118.3125 L 204.492188 118.3125 L 204.492188 239 L 37.5 239 Z M 37.5 118.3125 " clip-rule="nonzero"/></clipPath><clipPath id="952c434027"><path d="M 219.605469 143.597656 L 314.855469 143.597656 L 314.855469 238.847656 L 219.605469 238.847656 Z M 219.605469 143.597656 " clip-rule="nonzero"/></clipPath></defs><g clip-path="url(#820a5f7d1c)"><path fill="#b3f8b3" d="M 160.425781 238.691406 C 161.84375 238.546875 162.703125 238.101562 162.835938 237.441406 C 163.246094 235.429688 162.914062 233.332031 161.929688 231.683594 C 161.054688 230.21875 159.15625 228.695312 156.761719 227.535156 C 155.003906 226.683594 154.777344 226.515625 154.859375 226.140625 C 154.914062 225.902344 155.09375 224.222656 155.265625 222.402344 C 155.433594 220.582031 155.789062 218.101562 156.046875 216.886719 C 156.308594 215.671875 156.519531 214.644531 156.519531 214.597656 C 156.519531 214.554688 156.847656 214.515625 157.25 214.515625 C 158.363281 214.511719 161.367188 213.84375 162.714844 213.300781 C 164.484375 212.585938 166.546875 211.355469 168.886719 209.617188 C 173.695312 206.050781 176.980469 201.769531 178.425781 197.191406 C 179.253906 194.574219 179.566406 192.050781 179.441406 189.011719 C 179.253906 184.5 178.511719 181.277344 176.253906 175.203125 C 174.816406 171.335938 174.355469 169.34375 174.078125 165.84375 C 173.878906 163.257812 173.980469 162.179688 174.449219 161.933594 C 174.605469 161.851562 176.226562 161.464844 178.046875 161.078125 C 183.664062 159.878906 187.980469 157.960938 192.84375 154.5 C 198.285156 150.625 201.378906 146.878906 203.457031 141.648438 C 204.152344 139.894531 204.222656 138.699219 203.6875 137.65625 C 202.726562 135.785156 201.46875 135.316406 195.222656 134.488281 C 191.578125 134.003906 188.597656 133.347656 185.554688 132.359375 C 182.132812 131.25 180.859375 130.425781 177.75 127.308594 C 172.886719 122.429688 170.019531 120.660156 164.835938 119.324219 C 161.875 118.5625 158.902344 118.316406 155.449219 118.550781 C 153.949219 118.652344 152.152344 118.835938 151.457031 118.957031 C 149.984375 119.210938 146.753906 120.292969 145.328125 121.007812 C 142.578125 122.390625 139.316406 125 137.679688 127.132812 C 135.921875 129.414062 133.398438 135.117188 131.878906 140.242188 C 129.601562 147.933594 126.5 158.085938 126.015625 159.445312 C 125.734375 160.234375 125.007812 161.84375 124.40625 163.023438 C 123.117188 165.527344 121.5625 167.238281 118.519531 169.480469 C 116.53125 170.949219 115.363281 172.15625 115.042969 173.078125 C 114.878906 173.550781 114.910156 173.710938 115.226562 174.03125 C 115.4375 174.238281 115.785156 174.410156 116.003906 174.410156 C 117.101562 174.410156 121.324219 171.457031 123.910156 168.882812 C 126.664062 166.140625 127.949219 163.765625 129.832031 157.964844 C 131.714844 152.152344 134.4375 143.527344 135.292969 140.667969 C 136.734375 135.828125 139.367188 130.121094 140.949219 128.386719 C 142.066406 127.167969 144.867188 125.039062 146.304688 124.316406 C 147.746094 123.59375 150.929688 122.523438 152.824219 122.125 C 155.03125 121.660156 159.632812 121.648438 162.117188 122.101562 C 164.792969 122.589844 167.316406 123.464844 169.28125 124.59375 C 171.640625 125.945312 172.78125 126.851562 175.84375 129.796875 C 179.519531 133.335938 181.144531 134.304688 185.816406 135.753906 C 188.804688 136.679688 191.671875 137.257812 195.09375 137.621094 C 198.171875 137.949219 200.410156 138.386719 200.898438 138.699219 C 201.675781 139.207031 201.828125 139.78125 200.914062 141.535156 C 198.707031 145.773438 194.96875 149.46875 189.40625 152.914062 C 185.390625 155.398438 182.011719 156.792969 176.675781 158.164062 C 173.300781 159.03125 173.121094 159.101562 172.253906 159.910156 C 171.0625 161.019531 170.851562 161.789062 170.863281 164.96875 C 170.878906 169.191406 171.289062 171.238281 173.367188 177.429688 C 175.753906 184.535156 176.375 187.75 176.109375 191.636719 C 175.746094 196.980469 173.941406 200.855469 170.117188 204.5 C 165.613281 208.789062 161.289062 211.050781 156.613281 211.566406 C 153.226562 211.9375 152.917969 212.644531 151.949219 222.304688 C 151.671875 225.035156 151.449219 227.503906 151.453125 227.789062 C 151.457031 228.332031 152.296875 229.507812 152.691406 229.511719 C 153.277344 229.519531 156.285156 230.941406 157.230469 231.652344 C 158.425781 232.554688 159.441406 233.84375 159.441406 234.453125 C 159.441406 234.859375 159.425781 234.863281 153.257812 234.820312 C 149.855469 234.792969 144.9375 234.71875 142.328125 234.648438 L 137.585938 234.527344 L 137.714844 233.914062 C 137.945312 232.820312 138.054688 217.058594 137.851562 214.175781 C 137.617188 210.859375 137.300781 209.976562 136.320312 209.882812 C 135.058594 209.761719 134.914062 210.722656 134.703125 220.746094 C 134.609375 225.296875 134.46875 231.191406 134.390625 233.839844 L 134.25 238.660156 L 139.703125 238.660156 C 142.703125 238.660156 148.304688 238.695312 152.152344 238.742188 C 156.003906 238.785156 159.726562 238.765625 160.425781 238.691406 Z M 59.695312 238.652344 C 63.070312 238.304688 66.523438 237.324219 69.089844 235.980469 C 71.550781 234.691406 72.164062 234.140625 72.164062 233.203125 C 72.164062 232.644531 72.050781 232.371094 71.730469 232.148438 C 71.082031 231.695312 70.503906 231.777344 69.175781 232.507812 C 67.589844 233.382812 64.511719 234.511719 62.4375 234.980469 C 60.238281 235.476562 55.84375 235.667969 53.558594 235.367188 C 49.695312 234.859375 45.886719 233.035156 43.554688 230.578125 C 42.3125 229.269531 41.171875 227.511719 41.410156 227.273438 C 41.472656 227.210938 42.257812 227.289062 43.15625 227.445312 C 47.492188 228.199219 49.859375 228.257812 54.53125 227.734375 C 60 227.121094 65.570312 224.929688 68.753906 222.140625 C 70.015625 221.035156 70.015625 221.035156 69.890625 217.144531 C 69.765625 213.128906 70.015625 211.191406 71.023438 208.332031 C 72.136719 205.179688 74.328125 201.246094 76.414062 198.648438 C 81.226562 192.671875 89.863281 187.058594 102.261719 181.863281 C 109.050781 179.015625 109.832031 178.554688 109.726562 177.457031 C 109.683594 177.039062 109.503906 176.765625 109.132812 176.558594 C 108.632812 176.28125 108.488281 176.296875 106.988281 176.8125 C 101.078125 178.84375 92.695312 182.550781 88.238281 185.101562 C 79.105469 190.332031 73.972656 195.085938 70.109375 201.890625 C 66.859375 207.621094 65.609375 213.140625 66.328125 218.605469 C 66.550781 220.300781 66.582031 220.253906 64.40625 221.46875 C 61.84375 222.902344 57.84375 224.15625 54.242188 224.65625 C 50.417969 225.183594 45.234375 224.851562 41.625 223.847656 C 38.625 223.011719 37.855469 223.335938 37.71875 225.503906 C 37.464844 229.488281 40.933594 234.121094 45.894531 236.40625 C 49.675781 238.152344 55.433594 239.089844 59.695312 238.652344 Z M 123.859375 237.949219 C 124.691406 232.90625 121.40625 227.976562 116.136719 226.367188 L 114.816406 225.960938 L 115.222656 225.351562 C 116.574219 223.296875 117.746094 220.265625 118.148438 217.761719 C 118.445312 215.921875 118.304688 212.191406 117.847656 209.84375 C 116.574219 203.285156 111.496094 196.738281 109.027344 198.464844 C 108.234375 199.023438 108.464844 199.613281 110.121094 201.238281 C 111.847656 202.9375 113.035156 205.007812 113.945312 207.898438 C 115.03125 211.335938 115.285156 216.105469 114.53125 218.898438 C 114.101562 220.492188 112.726562 223.308594 111.636719 224.824219 C 110.871094 225.898438 110.738281 226.214844 110.738281 227.007812 C 110.738281 228.113281 110.851562 228.199219 112.902344 228.621094 C 115.808594 229.21875 118.75 231.246094 119.894531 233.441406 C 120.15625 233.945312 120.328125 234.382812 120.277344 234.417969 C 120.226562 234.453125 111.09375 234.433594 99.976562 234.375 L 79.765625 234.265625 L 78.917969 233.433594 C 78.453125 232.976562 77.667969 231.878906 77.171875 230.988281 C 76.152344 229.15625 75.882812 228.875 75.148438 228.875 C 73.859375 228.875 73.828125 230.476562 75.070312 233.125 C 75.675781 234.417969 76.15625 235.097656 77.207031 236.144531 C 79.488281 238.425781 77.394531 238.214844 99.144531 238.351562 C 109.539062 238.414062 119.324219 238.519531 120.886719 238.585938 L 123.734375 238.699219 Z M 121.453125 222.757812 C 125.242188 222.132812 130.824219 220.765625 132.109375 220.144531 C 133.902344 219.277344 133.101562 217.773438 131.035156 218.132812 C 130.640625 218.203125 128.785156 218.636719 126.90625 219.101562 C 125.03125 219.566406 122.667969 220.132812 121.652344 220.359375 C 119.1875 220.90625 118.546875 221.542969 119.503906 222.5 C 119.878906 222.875 120.355469 222.9375 121.453125 222.757812 Z M 156.171875 168.101562 C 157.519531 167.742188 159.085938 166.621094 159.78125 165.523438 C 160.113281 165.003906 160.578125 163.933594 160.816406 163.148438 C 161.226562 161.789062 161.242188 161.476562 161.136719 157.015625 C 161.078125 154.398438 160.878906 151.148438 160.691406 149.6875 C 160.4375 147.699219 160.347656 145.378906 160.316406 140.179688 C 160.28125 133.472656 160.269531 133.292969 159.871094 132.894531 C 159.277344 132.300781 158.558594 132.660156 158.28125 133.691406 C 157.46875 136.703125 157.296875 141.984375 157.808594 148.03125 C 158.214844 152.839844 158.28125 161.757812 157.917969 162.785156 C 157.332031 164.433594 155.871094 165.445312 154.050781 165.453125 C 151.6875 165.460938 148.4375 164.316406 145.5 162.4375 C 142.171875 160.308594 139.710938 156.722656 138.757812 152.605469 C 138.144531 149.960938 138.148438 145.367188 138.761719 142.515625 C 139.25 140.253906 139.914062 138.464844 140.753906 137.136719 C 141.417969 136.09375 141.480469 135.285156 140.941406 134.796875 C 140.015625 133.960938 139.003906 134.558594 138.046875 136.511719 C 136.582031 139.503906 135.875 142.671875 135.730469 146.894531 C 135.570312 151.6875 136.035156 154.328125 137.621094 157.570312 C 139.34375 161.097656 141.492188 163.382812 145.109375 165.539062 C 149.136719 167.941406 153.238281 168.890625 156.171875 168.101562 Z M 156.171875 168.101562 " fill-opacity="1" fill-rule="nonzero"/></g><g clip-path="url(#952c434027)"><path fill="#b3f8b3" d="M 267.207031 152.1875 C 279.917969 152.1875 281.421875 152.226562 286.449219 152.457031 C 291.082031 152.664062 293.609375 153.4375 295.300781 154.105469 C 297.511719 154.960938 299.097656 156.003906 300.765625 157.675781 C 302.4375 159.34375 303.460938 160.929688 304.335938 163.144531 C 304.984375 164.8125 305.753906 167.335938 305.984375 171.992188 C 306.214844 177.019531 306.257812 178.523438 306.257812 191.234375 C 306.257812 203.941406 306.214844 205.445312 305.984375 210.476562 C 305.777344 215.109375 305.003906 217.632812 304.335938 219.324219 C 303.480469 221.535156 302.4375 223.121094 300.765625 224.792969 C 299.097656 226.460938 297.511719 227.484375 295.300781 228.359375 C 293.628906 229.007812 291.105469 229.78125 286.449219 230.007812 C 281.421875 230.238281 279.917969 230.28125 267.207031 230.28125 C 254.5 230.28125 252.996094 230.238281 247.964844 230.007812 C 243.332031 229.800781 240.808594 229.027344 239.117188 228.359375 C 236.90625 227.503906 235.320312 226.460938 233.648438 224.792969 C 231.980469 223.121094 230.957031 221.535156 230.082031 219.324219 C 229.433594 217.65625 228.660156 215.128906 228.433594 210.476562 C 228.203125 205.445312 228.160156 203.941406 228.160156 191.234375 C 228.160156 178.523438 228.203125 177.019531 228.433594 171.992188 C 228.640625 167.359375 229.414062 164.832031 230.082031 163.144531 C 230.9375 160.929688 231.980469 159.34375 233.648438 157.675781 C 235.320312 156.003906 236.90625 154.984375 239.117188 154.105469 C 240.789062 153.460938 243.3125 152.6875 247.964844 152.457031 C 252.996094 152.226562 254.5 152.1875 267.207031 152.1875 M 267.207031 143.609375 C 254.269531 143.609375 252.664062 143.671875 247.570312 143.902344 C 242.5 144.128906 239.035156 144.945312 236.007812 146.113281 C 232.878906 147.324219 230.226562 148.949219 227.578125 151.601562 C 224.945312 154.253906 223.320312 156.902344 222.109375 160.03125 C 220.941406 163.058594 220.125 166.523438 219.898438 171.59375 C 219.667969 176.667969 219.605469 178.292969 219.605469 191.210938 C 219.605469 204.152344 219.667969 205.757812 219.898438 210.851562 C 220.125 215.921875 220.941406 219.386719 222.109375 222.414062 C 223.320312 225.542969 224.945312 228.195312 227.597656 230.84375 C 230.246094 233.496094 232.898438 235.121094 236.027344 236.332031 C 239.054688 237.5 242.519531 238.316406 247.589844 238.546875 C 252.664062 238.773438 254.289062 238.835938 267.230469 238.835938 C 280.167969 238.835938 281.777344 238.773438 286.867188 238.546875 C 291.9375 238.316406 295.402344 237.5 298.429688 236.332031 C 301.558594 235.121094 304.210938 233.496094 306.859375 230.84375 C 309.511719 228.195312 311.140625 225.542969 312.351562 222.414062 C 313.519531 219.386719 314.332031 215.921875 314.5625 210.851562 C 314.792969 205.78125 314.855469 204.152344 314.855469 191.210938 C 314.855469 178.273438 314.792969 176.667969 314.5625 171.574219 C 314.332031 166.503906 313.519531 163.039062 312.351562 160.011719 C 311.140625 156.882812 309.511719 154.230469 306.859375 151.582031 C 304.210938 148.929688 301.558594 147.300781 298.429688 146.09375 C 295.402344 144.921875 291.9375 144.109375 286.867188 143.878906 C 281.777344 143.671875 280.148438 143.609375 267.207031 143.609375 " fill-opacity="1" fill-rule="nonzero"/></g><path fill="#b3f8b3" d="M 267.207031 166.773438 C 253.707031 166.773438 242.769531 177.710938 242.769531 191.210938 C 242.769531 204.714844 253.726562 215.671875 267.230469 215.671875 C 280.730469 215.671875 291.6875 204.734375 291.6875 191.210938 C 291.667969 177.710938 280.710938 166.773438 267.207031 166.773438 M 267.207031 207.09375 C 258.441406 207.09375 251.347656 200 251.347656 191.234375 C 251.347656 182.46875 258.441406 175.371094 267.207031 175.371094 C 275.972656 175.371094 283.070312 182.46875 283.070312 191.234375 C 283.089844 199.976562 275.972656 207.09375 267.207031 207.09375 " fill-opacity="1" fill-rule="nonzero"/><path fill="#b3f8b3" d="M 298.347656 165.8125 C 298.347656 168.964844 295.777344 171.53125 292.628906 171.53125 C 289.476562 171.53125 286.910156 168.964844 286.910156 165.8125 C 286.910156 162.664062 289.476562 160.09375 292.628906 160.09375 C 295.777344 160.09375 298.347656 162.640625 298.347656 165.8125 " fill-opacity="1" fill-rule="nonzero"/></svg>